<?xml version="1.0" encoding="UTF-8"?>
<svg id="Layer_3" data-name="Layer 3" xmlns="http://www.w3.org/2000/svg" viewBox="0 0 453.09 465.25">
  <defs>
    <style>
      .cls-1 {
        fill: none;
        stroke-linecap: round;
        stroke-linejoin: round;
        stroke-width: 20px;
      }

      .cls-1, .cls-2 {
        stroke: #ff6400;
      }

      .cls-2 {
        fill: #ff6400;
        stroke-miterlimit: 10;
        stroke-width: 10px;
      }
    </style>
  </defs>
  <path class="cls-1" d="m437.59,236.85h0c7.34-7.34,7.34-19.25,0-26.59L244.47,17.15l.09-.07h0c-9.42-9.43-24.71-9.44-34.14,0L17.29,210.21c-7.37,7.37-7.37,19.32,0,26.7l.36.36c7.11,7.12,18.64,7.12,25.76,0l4.5-4.5v65.96c0,86.45,70.08,156.51,156.51,156.51h45.95c86.44,0,156.51-70.07,156.51-156.51v-65.96l4.11,4.08c7.34,7.34,19.25,7.34,26.6,0Z"/>
  <g>
    <path class="cls-1" d="m304.29,299.83c.22-2.37.35-4.77.35-7.21h-.35v-11.17h-154.12v18.44h.35c3.67,39.24,36.68,69.95,76.88,69.95s73.21-30.71,76.88-69.95h0v-.07Z"/>
    <circle class="cls-1" cx="154.38" cy="222.44" r="20.8"/>
  </g>
  <path class="cls-2" d="m316.41,202.12h0c0,1.94-1.11,3.72-2.85,4.58l-25.46,12.48,25.5,12.59c1.72.85,2.81,2.6,2.81,4.52h0c0,3.76-3.96,6.19-7.31,4.5l-28.85-14.57c-2.66-1.34-4.34-4.07-4.34-7.06h0c0-2.98,1.68-5.71,4.34-7.06l28.77-14.53c3.39-1.71,7.39.75,7.39,4.55Z"/>
</svg>